<svg xmlns="http://www.w3.org/2000/svg" data-name="Layer 1" viewBox="0 0 64 80" x="0px" y="0px"><path d="M44.424,21.948c.188-.2,.287-.469,.271-.744-.399-6.855-5.976-12.226-12.694-12.226s-12.295,5.37-12.694,12.226c-.017,.275,.082,.544,.271,.744,.189,.201,.452,.314,.728,.314h23.393c.275,0,.538-.113,.728-.314Zm-11.843-1.686l-2.208-3.82c-.276-.478-.89-.644-1.366-.365-.479,.276-.643,.888-.366,1.366l1.629,2.819h-8.856c.81-5.284,5.274-9.284,10.586-9.284s9.776,4,10.586,9.284h-10.005Z"/><path d="M28.95,62h6.01c.553,0,1-.448,1-1v-12.72h7.064c.363,0,.697-.197,.874-.514,4.781-8.603,7.638-20.091,7.638-26.229,0-10.772-8.764-19.537-19.536-19.537S12.464,10.764,12.464,21.537c0,6.138,2.856,17.626,7.638,26.229,.177,.317,.511,.514,.874,.514h6.975v12.72c0,.552,.447,1,1,1Zm5.01-2h-4.01v-11.72h4.01v11.72ZM14.464,21.537c0-9.67,7.866-17.537,17.536-17.537s17.536,7.867,17.536,17.537c0,5.636-2.708,16.583-7.104,24.743H21.568c-4.396-8.16-7.104-19.107-7.104-24.743Z"/><path d="M29.784,39.549v-4.486h4.699c1.895,0,3.436-1.541,3.436-3.436v-1.703c0-1.895-1.541-3.436-3.436-3.436h-5.699c-.553,0-1,.448-1,1v12.061c0,.552,.447,1,1,1s1-.448,1-1Zm6.135-9.625v1.703c0,.792-.644,1.436-1.436,1.436h-4.699v-4.574h4.699c.792,0,1.436,.644,1.436,1.436Z"/><text x="0" y="79" fill="#000000" font-size="5px" font-weight="bold" font-family="'Helvetica Neue', Helvetica, Arial-Unicode, Arial, Sans-serif">Created by Nur syifa fauziah</text><text x="0" y="84" fill="#000000" font-size="5px" font-weight="bold" font-family="'Helvetica Neue', Helvetica, Arial-Unicode, Arial, Sans-serif">from the Noun Project</text></svg>